<?xml version="1.0" encoding="iso-8859-1"?>
<!-- Uploaded to: SVG Repo, www.svgrepo.com, Generator: SVG Repo Mixer Tools -->
<svg version="1.1" id="Layer_1" xmlns="http://www.w3.org/2000/svg" xmlns:xlink="http://www.w3.org/1999/xlink" 
	 viewBox="0 0 512 512" xml:space="preserve">
<rect x="88.276" y="188.701" style="fill:#EBC9A0;" width="335.448" height="229.517"/>
<g>
	<rect x="132.414" y="188.701" style="fill:#FAEBC8;" width="35.31" height="229.517"/>
	<rect x="273.655" y="188.701" style="fill:#FAEBC8;" width="35.31" height="229.517"/>
	<rect x="344.276" y="188.701" style="fill:#FAEBC8;" width="35.31" height="229.517"/>
	<rect x="203.034" y="188.701" style="fill:#FAEBC8;" width="35.31" height="229.517"/>
	<rect x="61.793" y="188.701" style="fill:#FAEBC8;" width="35.31" height="229.517"/>
	<rect x="414.897" y="188.701" style="fill:#FAEBC8;" width="35.31" height="229.517"/>
</g>
<path style="fill:#F5DCB4;" d="M35.31,418.221v35.31H476.69v-35.31c0-4.875-3.953-8.828-8.828-8.828H44.138
	C39.263,409.394,35.31,413.346,35.31,418.221z"/>
<path style="fill:#FAEBC8;" d="M494.345,480.014H17.655c-4.875,0-8.828-3.953-8.828-8.828v-17.655c0-4.875,3.953-8.828,8.828-8.828
	h476.69c4.875,0,8.828,3.953,8.828,8.828v17.655C503.172,476.062,499.22,480.014,494.345,480.014z"/>
<path style="fill:#F5DCB4;" d="M35.31,153.394v35.31c0,4.875,3.953,8.828,8.828,8.828h423.724c4.875,0,8.828-3.953,8.828-8.828
	v-35.31H35.31z"/>
<path style="fill:#FAEBC8;" d="M503.172,162.221H8.828c-4.875,0-8.828-3.953-8.828-8.828v-10.28c0-4.465,2.69-8.489,6.815-10.196
	l239.06-98.921c6.484-2.682,13.768-2.682,20.252,0l239.059,98.921c4.125,1.707,6.815,5.731,6.815,10.196v10.28
	C512,158.27,508.047,162.221,503.172,162.221z"/>
</svg>