<svg xmlns:svg="http://www.w3.org/2000/svg" xmlns="http://www.w3.org/2000/svg" viewBox="0 0 755.9 755.91" height="755.91" width="755.9" xml:space="preserve" id="svg2" version="1.1"><metadata id="metadata8"/><defs id="defs6"><clipPath id="clipPath20" clipPathUnits="userSpaceOnUse"><path id="path18" d="M0 566.93H566.93V0H0Z"/></clipPath></defs><g transform="matrix(1.3333333,0,0,-1.3333333,0,755.90533)" id="g10"><path id="path12" d="M0 0H566.93V566.93H0Z" style="fill-rule:nonzero;fill:#028cb5"/><g id="g14"><g clip-path="url(#clipPath20)" id="g16"><g transform="translate(443.9107,263.8399)" id="g22"><path id="path24" d="m0 0c0-16.02-5.14-29.35-15.4-39.97-10.26-10.62-22.4-15.94-36.41-15.94-7.83 0-14.19 2.58-19.05 7.75-4.86 5.16-7.3 12.3-7.3 21.46 0 13.04 4.69 23.14 14.07 30.25 12.58 9.39 33.95 16.15 64.09 20.3zm33.41-49.57c-3.68 7.32-3.68 19.17-3.68 19.17v87.52c0 0 0 49.9-61.07 49.9-21.48 0-38.85-4.87-52.08-14.6-13.24-9.74-19.85-20.48-19.85-32.24 0-6.29 1.98-11.47 5.96-15.48 3.98-4.06 8.93-6.05 14.87-6.05 5.58 0 10.08 1.68 13.53 5.06 3.45 3.38 5.16 7.75 5.16 13.1 0 3.68-1.71 7.89-5.16 12.64-2.84 3.81-4.27 6.6-4.27 8.38 0 3.08 2.67 6.23 8.01 9.44 7.48 4.28 16.38 6.42 26.71 6.42 11.15 0 20.36-3.21 27.6-9.63C-3.61 77.65 0 69.92 0 60.91V35.62C-33.83 31.81-60.93 24.18-81.29 12.73c-20.34-11.45-30.53-25.86-30.53-43.17 0-8.01 2.16-15 6.45-21.01 0 0 2.17-2.94 6.1-6.34h-6.8c-8.9 0.41-13.92 2.58-16.75 8.23-3.66 7.32-3.68 19.17-3.68 19.17v76.89c0 11.62-2.25 22.11-6.76 31.51-4.52 9.38-10.51 16.23-17.98 20.57-7.49 4.33-16.75 6.51-27.78 6.51-12.82 0-24.31-3.04-34.46-9.09-10.15-6.06-18.95-15.12-26.43-27.24v32.76c0 1.44-1.17 2.61-2.61 2.61h-47.21v-7.03c8.9-0.41 13.92-3.97 16.75-9.63 3.68-7.31 3.68-17.78 3.68-17.78V-30.4c0 0-0.01-11.85-3.68-19.17-2.82-5.65-7.85-7.82-16.75-8.23h-10.38c-8.9 0.41-13.92 2.58-16.75 8.23-3.68 7.32-3.68 19.17-3.68 19.17v131.92c0 1.44-1.17 2.61-2.61 2.61h-47.91v-7.03c8.9-0.41 13.92-3.97 16.76-9.63 3.67-7.31 3.67-17.78 3.67-17.78V-30.4c0 0 0-11.85-3.67-19.17-2.83-5.65-7.85-7.82-16.76-8.23v-7.02h151.57v7.02c-8.9 0.41-13.92 2.58-16.75 8.23-3.68 7.32-3.68 19.17-3.68 19.17v57.48c0 17.31 4.49 31.39 13.44 42.19 8.97 10.81 20.16 16.22 33.57 16.22 13.54 0 23.63-5.34 30.28-16.04 4.74-7.47 7.12-19.01 7.12-34.55v-65.29c0 0 0-11.85-3.68-19.17-2.83-5.65-7.86-7.82-16.75-8.23v-7.02h87.6c7.77-3.31 17.41-4.99 28.87-4.99 11.99 0 22.26 2 30.81 5.97 8.55 3.97 18.45 11.9 29.74 23.77 0 0 2.79-24.75 30.66-24.75h18.44v7.02c-8.9 0.41-13.92 2.58-16.75 8.23" style="fill-rule:nonzero;fill:#fff"/></g><g transform="translate(126.4371,409.5352)" id="g26"><path id="path28" d="m0 0c0.34-10.05-7.04-18.1-18.77-18.1-10.4 0-17.77 8.05-17.77 18.1 0 10.4 7.71 18.44 18.44 18.44C-7.04 18.44 0 10.4 0 0" style="fill-rule:nonzero;fill:#fff"/></g></g></g></g></svg>
