<?xml version="1.0" encoding="iso-8859-1"?>
<!-- Uploaded to: SVG Repo, www.svgrepo.com, Generator: SVG Repo Mixer Tools -->
<svg version="1.1" id="Layer_1" xmlns="http://www.w3.org/2000/svg" xmlns:xlink="http://www.w3.org/1999/xlink" 
	 viewBox="0 0 512 512" xml:space="preserve">
<path style="fill:#E0E0E0;" d="M312.02,153.389l-56.019-20.898l-56.019,20.898c-1.072,89.986-67.251,136.296-67.251,136.296
	L256.001,512l123.27-222.315C379.27,289.685,313.092,243.374,312.02,153.389z"/>
<path style="fill:#F1F1F1;" d="M256.001,132.491l-56.019,20.898c-1.072,89.986-67.251,136.296-67.251,136.296L256.001,512V132.491z"
	/>
<path style="fill:#3B67AA;" d="M271.674,332.659c11.176-5.71,18.833-17.326,18.833-30.739c0-19.058-15.45-34.507-34.507-34.507
	c-19.057,0-34.507,15.449-34.507,34.507c0,13.412,7.657,25.028,18.833,30.739v151.073L256.001,512l15.673-28.268V332.659z"/>
<rect x="171.165" y="43.227" style="fill:#B4B4B4;" width="169.671" height="110.164"/>
<rect x="171.165" y="43.227" style="fill:#E0E0E0;" width="84.835" height="110.164"/>
<path style="fill:#FF405F;" d="M128.543,0v50.499c0,19.86,16.1,35.959,35.959,35.959h182.996c19.859,0,35.959-16.1,35.959-35.959V0
	H128.543z"/>
<path style="fill:#FB788A;" d="M256.001,0H128.543v50.499c0,19.859,16.1,35.959,35.959,35.959h91.499V0z"/>
</svg>